<svg xmlns="http://www.w3.org/2000/svg" viewBox="0 0 1600 560" width="1600" height="560">
  <defs>
    <linearGradient id="chrome" x1="0" y1="0" x2="0" y2="1">
      <stop offset="0" stop-color="#f6f9fc"/><stop offset=".26" stop-color="#cdd5df"/><stop offset=".5" stop-color="#5f6a7a"/>
      <stop offset=".57" stop-color="#2a313e"/><stop offset=".8" stop-color="#b3bdca"/><stop offset="1" stop-color="#eaeff5"/></linearGradient>
    <linearGradient id="chrome-dim" x1="0" y1="0" x2="0" y2="1">
      <stop offset="0" stop-color="#a3afc0"/><stop offset=".5" stop-color="#394252"/><stop offset="1" stop-color="#7d8898"/></linearGradient>
    <radialGradient id="fade-r" cx="800" cy="258" r="800" gradientUnits="userSpaceOnUse"
        gradientTransform="translate(0 258) scale(1 .58) translate(0 -258)">
      <stop offset=".6" stop-color="#fff"/><stop offset=".84" stop-color="#fff" stop-opacity=".4"/><stop offset="1" stop-color="#fff" stop-opacity="0"/></radialGradient>
    <linearGradient id="fade-t" x1="0" y1="0" x2="0" y2="140" gradientUnits="userSpaceOnUse">
      <stop offset="0" stop-color="#fff" stop-opacity="0"/><stop offset="1" stop-color="#fff"/></linearGradient>
    <mask id="fade-round" maskUnits="userSpaceOnUse" x="0" y="0" width="1600" height="560"><rect width="1600" height="560" fill="url(#fade-r)"/></mask>
    <mask id="fade-top" maskUnits="userSpaceOnUse" x="0" y="0" width="1600" height="560"><rect width="1600" height="560" fill="url(#fade-t)"/></mask>
    <linearGradient id="body" x1="0" y1="180" x2="0" y2="470" gradientUnits="userSpaceOnUse">
      <stop offset="0" stop-color="#121c2f"/><stop offset=".32" stop-color="#0a111e"/><stop offset="1" stop-color="#04060b"/></linearGradient>
    <linearGradient id="body-sides" x1="160" y1="0" x2="1440" y2="0" gradientUnits="userSpaceOnUse">
      <stop offset="0" stop-color="#000" stop-opacity=".75"/><stop offset=".16" stop-color="#000" stop-opacity="0"/>
      <stop offset=".84" stop-color="#000" stop-opacity="0"/><stop offset="1" stop-color="#000" stop-opacity=".75"/></linearGradient>
    <linearGradient id="hood" x1="0" y1="86" x2="0" y2="200" gradientUnits="userSpaceOnUse">
      <stop offset="0" stop-color="#080d18"/><stop offset=".7" stop-color="#101a2c"/><stop offset="1" stop-color="#172338"/></linearGradient>
    <radialGradient id="hood-sheen" cx="800" cy="150" r="320" gradientUnits="userSpaceOnUse"
        gradientTransform="translate(0 150) scale(1 .16) translate(0 -150)">
      <stop offset="0" stop-color="#9fb6dc" stop-opacity=".16"/><stop offset="1" stop-color="#9fb6dc" stop-opacity="0"/></radialGradient>
    <linearGradient id="edge-gleam" x1="400" y1="0" x2="1200" y2="0" gradientUnits="userSpaceOnUse">
      <stop offset="0" stop-color="#dfe9ff" stop-opacity="0"/><stop offset=".22" stop-color="#dfe9ff" stop-opacity=".55"/>
      <stop offset=".5" stop-color="#ffffff" stop-opacity=".8"/><stop offset=".78" stop-color="#dfe9ff" stop-opacity=".55"/>
      <stop offset="1" stop-color="#dfe9ff" stop-opacity="0"/></linearGradient>
    <linearGradient id="line-fade" x1="0" y1="0" x2="0" y2="1">
      <stop offset="0" stop-color="#b9cbea" stop-opacity="0"/><stop offset=".55" stop-color="#b9cbea" stop-opacity=".22"/>
      <stop offset="1" stop-color="#b9cbea" stop-opacity="0"/></linearGradient>
    <linearGradient id="glass" x1="0" y1="0" x2="0" y2="98" gradientUnits="userSpaceOnUse">
      <stop offset="0" stop-color="#03060c"/><stop offset="1" stop-color="#0c1525"/></linearGradient>
    <linearGradient id="hl-glass" x1="0" y1="200" x2="0" y2="268" gradientUnits="userSpaceOnUse">
      <stop offset="0" stop-color="#1a2840"/><stop offset=".5" stop-color="#0b1424"/><stop offset="1" stop-color="#05080f"/></linearGradient>
    <linearGradient id="hl-sheen" x1="0" y1="200" x2="0" y2="236" gradientUnits="userSpaceOnUse">
      <stop offset="0" stop-color="#e6efff" stop-opacity=".2"/><stop offset="1" stop-color="#e6efff" stop-opacity="0"/></linearGradient>
    <pattern id="hl-cells" width="6" height="4.5" patternUnits="userSpaceOnUse" patternTransform="rotate(4)">
      <rect x=".4" y=".4" width="5.2" height="3.7" rx=".8" fill="none" stroke="#24344f" stroke-width=".5"/></pattern>
    <linearGradient id="grille-deep" x1="0" y1="214" x2="0" y2="356" gradientUnits="userSpaceOnUse">
      <stop offset="0" stop-color="#0d131e"/><stop offset=".5" stop-color="#05080e"/><stop offset="1" stop-color="#020306"/></linearGradient>
    <radialGradient id="star-well" cx="800" cy="280" r="78" gradientUnits="userSpaceOnUse">
      <stop offset=".72" stop-color="#000" stop-opacity=".85"/><stop offset="1" stop-color="#000" stop-opacity="0"/></radialGradient>
    <radialGradient id="floor-shadow" cx="800" cy="472" r="720" gradientUnits="userSpaceOnUse"
        gradientTransform="translate(0 472) scale(1 .05) translate(0 -472)">
      <stop offset="0" stop-color="#000" stop-opacity=".9"/><stop offset="1" stop-color="#000" stop-opacity="0"/></radialGradient>
    <pattern id="grille-fine" width="8" height="7" patternUnits="userSpaceOnUse">
      <rect width="8" height="7" fill="#03050a"/><rect y="5.6" width="8" height="1.1" fill="#1a2334"/><rect width=".9" height="7" fill="#0c121c"/></pattern>
    <pattern id="mesh" width="14" height="12" patternUnits="userSpaceOnUse">
      <rect width="14" height="12" fill="#030509"/>
      <path d="M3.5 0L0 6L3.5 12M10.5 0L14 6L10.5 12M3.5 0H10.5M3.5 12H10.5M0 6H-1M14 6H15" fill="none" stroke="#1c2635" stroke-width="1"/></pattern>
    <clipPath id="grille-clip"><path d="M638 212H962Q988 212 992 238L1006 322Q1010 348 982 348H618Q590 348 594 322L608 238Q612 212 638 212Z"/></clipPath>
    <clipPath id="hl-clip"><path d="M276 218L304 206C380 199 470 203 546 212L598 220C612 222 618 232 612 242L604 250C592 254 572 255 552 254L380 246C334 243 300 234 276 218Z"/></clipPath>
    <clipPath id="intake-clip"><path d="M560 386H1040Q1058 386 1056 402L1050 432Q1046 446 1030 446H570Q554 446 550 432L544 402Q542 386 560 386Z"/></clipPath>
    <linearGradient id="lens-box" x1="0" y1="0" x2="0" y2="1">
      <stop offset="0" stop-color="#2c3d5e"/><stop offset=".5" stop-color="#070b14"/><stop offset="1" stop-color="#3a4c6e"/></linearGradient>
    <radialGradient id="bumper-sheen" cx="800" cy="368" r="540" gradientUnits="userSpaceOnUse"
        gradientTransform="translate(0 368) scale(1 .05) translate(0 -368)">
      <stop offset="0" stop-color="#b3c6e8" stop-opacity=".09"/><stop offset="1" stop-color="#b3c6e8" stop-opacity="0"/></radialGradient>
    <g id="headlight">
      <path d="M276 218L304 206C380 199 470 203 546 212L598 220C612 222 618 232 612 242L604 250C592 254 572 255 552 254L380 246C334 243 300 234 276 218Z" fill="url(#hl-glass)"/>
      <g clip-path="url(#hl-clip)">
        <path d="M276 218L304 206C380 199 470 203 546 212L598 220C612 222 618 232 612 242L604 250C592 254 572 255 552 254L380 246C334 243 300 234 276 218Z" fill="url(#hl-cells)" opacity=".7"/>
        <path d="M404 228L566 238Q578 239 577 248Q576 256 564 256L404 248Q392 247 393 238Q394 228 404 228Z" fill="#0a1220" stroke="#8ea4c6" stroke-opacity=".16"/>
        <rect x="418.0" y="229.5" width="36" height="13" rx="4" transform="rotate(3.4 436 236)" fill="url(#chrome-dim)"/><rect x="420.5" y="231.75" width="31" height="8.5" rx="4" transform="rotate(3.4 436 236)" fill="url(#lens-box)"/><rect x="424.0" y="232.9" width="24" height="1" rx="4" transform="rotate(3.4 436 233.4)" fill="#fff" fill-opacity=".35"/><rect x="466.0" y="232.5" width="36" height="13" rx="4" transform="rotate(3.4 484 239)" fill="url(#chrome-dim)"/><rect x="468.5" y="234.75" width="31" height="8.5" rx="4" transform="rotate(3.4 484 239)" fill="url(#lens-box)"/><rect x="472.0" y="235.9" width="24" height="1" rx="4" transform="rotate(3.4 484 236.4)" fill="#fff" fill-opacity=".35"/><rect x="514.0" y="235.5" width="36" height="13" rx="4" transform="rotate(3.4 532 242)" fill="url(#chrome-dim)"/><rect x="516.5" y="237.75" width="31" height="8.5" rx="4" transform="rotate(3.4 532 242)" fill="url(#lens-box)"/><rect x="520.0" y="238.9" width="24" height="1" rx="4" transform="rotate(3.4 532 239.4)" fill="#fff" fill-opacity=".35"/>
        <path d="M0 -9L1.7 -1.2L8.2 5.2L0 2.1L-8.2 5.2L-1.7 -1.2Z" transform="translate(332 226) scale(0.833)" fill="#34445f" stroke="#a8bbd9" stroke-opacity=".3" stroke-width=".5"/><path d="M0 -9L1.7 -1.2L8.2 5.2L0 2.1L-8.2 5.2L-1.7 -1.2Z" transform="translate(368 229) scale(0.833)" fill="#34445f" stroke="#a8bbd9" stroke-opacity=".3" stroke-width=".5"/>
        <path d="M318 238C400 246 500 251 590 252" fill="none" stroke="#7a5326" stroke-opacity=".45" stroke-width="2" stroke-linecap="round"/>
        <path d="M276 218L304 206C380 199 470 203 546 212L598 220C612 222 618 232 612 242L604 250C592 254 572 255 552 254L380 246C334 243 300 234 276 218Z" fill="url(#hl-sheen)"/>
        <path d="M296 224L322 208M600 226L582 252" stroke="#c9d8f2" stroke-opacity=".06" stroke-width="9" stroke-linecap="round"/>
      </g>
      <path d="M292 214C330 205 420 203 546 214L594 222C604 224 608 232 604 240" fill="none" stroke="#61789c" stroke-opacity=".6" stroke-width="3.2" stroke-linecap="round" stroke-linejoin="round"/>
      <path d="M292 214C330 205 420 203 546 214L594 222C604 224 608 232 604 240" fill="none" stroke="#d6e2f5" stroke-opacity=".22" stroke-width="1" stroke-linecap="round" stroke-linejoin="round"/>
      <path d="M276 218L304 206C380 199 470 203 546 212L598 220C612 222 618 232 612 242L604 250C592 254 572 255 552 254L380 246C334 243 300 234 276 218Z" fill="none" stroke="url(#chrome-dim)" stroke-width="1.8"/>
      <path d="M304 206C380 199 470 203 546 212" fill="none" stroke="#fff" stroke-opacity=".35" stroke-width=".8"/>
    </g>
    <g id="side-intake">
      <path d="M262 382L452 374Q466 374 464 387L458 424Q456 436 443 436L292 440Q278 440 274 430Z" fill="url(#mesh)" stroke="#9fb3d4" stroke-opacity=".12" stroke-width="1.2"/>
      <path d="M280 396L460 390M284 416L458 410" stroke="url(#chrome-dim)" stroke-width="2.6" stroke-linecap="round"/>
      <path d="M266 378L452 370" stroke="#c6d4ec" stroke-opacity=".22" stroke-width="1.2" stroke-linecap="round"/>
    </g>
    <g id="tyre">
      <rect x="160" y="388" width="94" height="84" rx="20" fill="#040509"/>
      <path d="M166 404H250M166 414H250M166 424H250M166 434H250M166 444H250M166 454H250" stroke="#0f141d" stroke-width="2.2"/>
      <path d="M168 398C163 420 163 446 170 466" fill="none" stroke="#c9d6ec" stroke-opacity=".08" stroke-width="3"/>
    </g>
    <g id="flank">
      <path d="M198 276C244 248 322 222 404 206" fill="none" stroke="#c4d4f0" stroke-opacity=".26" stroke-width="1.5"/>
      <path d="M404 206L486 100" stroke="#000" stroke-opacity=".7" stroke-width="2.4"/>
      <path d="M406 207L488 101" stroke="#a9bde0" stroke-opacity=".1" stroke-width="1"/>
      <path d="M672 104C684 134 700 162 720 186" fill="none" stroke="#9fb6dc" stroke-opacity=".035" stroke-width="20"/>
      <path d="M652 104C664 134 680 162 700 186" fill="none" stroke="url(#line-fade)" stroke-width="1.6"/>
      <path d="M190 300C184 340 186 390 196 426" fill="none" stroke="#bccde9" stroke-opacity=".05" stroke-width="7"/>
      <path d="M190 300C184 340 186 390 196 426" fill="none" stroke="#bccde9" stroke-opacity=".12" stroke-width="1.4"/>
      <path d="M292 288C410 304 520 324 594 346" fill="none" stroke="#bccde9" stroke-opacity=".13" stroke-width="1.2"/>
      <path d="M452 374C486 371 520 376 546 388" fill="none" stroke="url(#chrome-dim)" stroke-width="2"/>
      <path d="M486 100L546 -4" stroke="#000" stroke-width="10"/>
      <path d="M492 100L552 -4" stroke="#8fa6cc" stroke-opacity=".12" stroke-width="1.2"/>
    </g>
  </defs>
  <g mask="url(#fade-round)"><g mask="url(#fade-top)">
    <ellipse cx="800" cy="472" rx="720" ry="36" fill="url(#floor-shadow)"/>
    <use href="#tyre"/><use href="#tyre" transform="translate(1600 0) scale(-1 1)"/>
    <path d="M486 100C588 92 698 88 800 88C902 88 1012 92 1114 100L1054 -4H546Z" fill="url(#glass)"/>
    <path d="M600 94L702 -4H772L662 92Z" fill="#c8d8f5" fill-opacity=".05"/>
    <path d="M238 466C206 466 184 452 176 430L168 350C166 312 176 290 198 276C244 248 322 222 404 206C520 190 680 184 800 184C920 184 1080 190 1196 206C1278 222 1356 248 1402 276C1424 290 1434 312 1432 350L1424 430C1416 452 1394 466 1362 466Z" fill="url(#body)"/>
    <path d="M404 206C520 190 680 184 800 184C920 184 1080 190 1196 206L1114 100C1012 92 902 88 800 88C698 88 588 92 486 100Z" fill="url(#hood)"/>
    <path d="M404 206C520 190 680 184 800 184C920 184 1080 190 1196 206L1114 100C1012 92 902 88 800 88C698 88 588 92 486 100Z" fill="url(#hood-sheen)"/>
    <path d="M238 466C206 466 184 452 176 430L168 350C166 312 176 290 198 276C244 248 322 222 404 206C520 190 680 184 800 184C920 184 1080 190 1196 206C1278 222 1356 248 1402 276C1424 290 1434 312 1432 350L1424 430C1416 452 1394 466 1362 466Z" fill="url(#body-sides)"/>
    <ellipse cx="800" cy="368" rx="540" ry="27" fill="url(#bumper-sheen)"/>
    <use href="#flank"/><use href="#flank" transform="translate(1600 0) scale(-1 1)"/>
    <path d="M404 206C520 190 680 184 800 184C920 184 1080 190 1196 206" fill="none" stroke="#000" stroke-opacity=".75" stroke-width="3" transform="translate(0 3)"/>
    <path d="M404 206C520 190 680 184 800 184C920 184 1080 190 1196 206" fill="none" stroke="url(#edge-gleam)" stroke-width="1.6"/>
    <use href="#headlight"/><use href="#headlight" transform="translate(1600 0) scale(-1 1)"/>
    <path d="M638 212H962Q988 212 992 238L1006 322Q1010 348 982 348H618Q590 348 594 322L608 238Q612 212 638 212Z" fill="url(#grille-deep)"/>
    <path d="M638 212H962Q988 212 992 238L1006 322Q1010 348 982 348H618Q590 348 594 322L608 238Q612 212 638 212Z" fill="url(#grille-fine)" fill-opacity=".9"/>
    <g clip-path="url(#grille-clip)">
      <path d="M616.7 226.2H983.3a1.8 1.8 0 0 1 0 3.6H616.7a1.8 1.8 0 0 1 0 -3.6ZM614.2 240.7H985.8a1.8 1.8 0 0 1 0 3.6H614.2a1.8 1.8 0 0 1 0 -3.6ZM611.8 255.2H988.2a1.8 1.8 0 0 1 0 3.6H611.8a1.8 1.8 0 0 1 0 -3.6ZM609.4 269.7H990.6a1.8 1.8 0 0 1 0 3.6H609.4a1.8 1.8 0 0 1 0 -3.6ZM607.0 284.2H993.0a1.8 1.8 0 0 1 0 3.6H607.0a1.8 1.8 0 0 1 0 -3.6ZM604.6 298.7H995.4a1.8 1.8 0 0 1 0 3.6H604.6a1.8 1.8 0 0 1 0 -3.6ZM602.2 313.2H997.8a1.8 1.8 0 0 1 0 3.6H602.2a1.8 1.8 0 0 1 0 -3.6ZM599.8 327.7H1000.2a1.8 1.8 0 0 1 0 3.6H599.8a1.8 1.8 0 0 1 0 -3.6Z" fill="url(#chrome)"/>
      <path d="M616.7 226.2H983.3a1.8 1.8 0 0 1 0 3.6H616.7a1.8 1.8 0 0 1 0 -3.6ZM614.2 240.7H985.8a1.8 1.8 0 0 1 0 3.6H614.2a1.8 1.8 0 0 1 0 -3.6ZM611.8 255.2H988.2a1.8 1.8 0 0 1 0 3.6H611.8a1.8 1.8 0 0 1 0 -3.6ZM609.4 269.7H990.6a1.8 1.8 0 0 1 0 3.6H609.4a1.8 1.8 0 0 1 0 -3.6ZM607.0 284.2H993.0a1.8 1.8 0 0 1 0 3.6H607.0a1.8 1.8 0 0 1 0 -3.6ZM604.6 298.7H995.4a1.8 1.8 0 0 1 0 3.6H604.6a1.8 1.8 0 0 1 0 -3.6ZM602.2 313.2H997.8a1.8 1.8 0 0 1 0 3.6H602.2a1.8 1.8 0 0 1 0 -3.6ZM599.8 327.7H1000.2a1.8 1.8 0 0 1 0 3.6H599.8a1.8 1.8 0 0 1 0 -3.6Z" fill="none" stroke="#000" stroke-opacity=".55" stroke-width=".7"/>
      <path d="M638 212H962Q988 212 992 238L1006 322Q1010 348 982 348H618Q590 348 594 322L608 238Q612 212 638 212Z" fill="none" stroke="#000" stroke-opacity=".6" stroke-width="16"/>
      <circle cx="800" cy="280" r="78" fill="url(#star-well)"/>
    </g>
    <circle cx="800" cy="280" r="58" fill="#03050a"/>
    <svg x="743" y="223" width="114" height="114" viewBox="0 0 64 64"><linearGradient id="st-a" gradientUnits="userSpaceOnUse" x1="114" y1="-142.9" x2="162" y2="-183.1" gradientTransform="matrix(1 0 0 -1 -106 -131)"><stop offset="0" stop-color="#FFF"></stop><stop offset=".1" stop-color="#E7E8E6"></stop><stop offset=".1" stop-color="#CDD0D0"></stop><stop offset=".2" stop-color="#B5BBBD"></stop><stop offset=".2" stop-color="#A5ACAF"></stop><stop offset=".3" stop-color="#9BA3A7"></stop><stop offset=".3" stop-color="#98A0A4"></stop><stop offset=".4" stop-color="#828A8F"></stop><stop offset=".5" stop-color="#667075"></stop><stop offset=".6" stop-color="#535C63"></stop><stop offset=".7" stop-color="#475158"></stop><stop offset=".8" stop-color="#434D54"></stop><stop offset="1" stop-color="#475157"></stop></linearGradient><path fill="url(#st-a)" d="M63.3 32c0 17.3-14 31.3-31.3 31.3S.7 49.3.7 32 14.7.7 32 .7s31.3 14 31.3 31.3zM32 2.6C15.7 2.6 2.6 15.7 2.6 32S15.8 61.4 32 61.4c16.3 0 29.4-13.2 29.4-29.4C61.4 15.7 48.3 2.6 32 2.6z"></path><linearGradient id="st-b" gradientUnits="userSpaceOnUse" x1="115.47" y1="-144.06" x2="160.47" y2="-181.86" gradientTransform="matrix(1 0 0 -1 -106 -131)"><stop offset="0" stop-color="#0B1F2A"></stop><stop offset=".2" stop-color="#333F47"></stop><stop offset=".5" stop-color="#777F84"></stop><stop offset=".5" stop-color="#81898D"></stop><stop offset=".7" stop-color="#B3B8B8"></stop><stop offset=".8" stop-color="#D2D5D3"></stop><stop offset=".8" stop-color="#DEE0DD"></stop><stop offset="1" stop-color="#FBFBFB"></stop></linearGradient><path fill="url(#st-b)" d="M32 2.6C15.7 2.6 2.6 15.7 2.6 32S15.8 61.4 32 61.4c16.3 0 29.4-13.2 29.4-29.4C61.4 15.7 48.3 2.6 32 2.6zm0 56.9C16.8 59.5 4.5 47.2 4.5 32S16.8 4.5 32 4.5 59.5 16.8 59.5 32 47.2 59.5 32 59.5z"></path><linearGradient id="st-c" gradientUnits="userSpaceOnUse" x1="1933.73" y1="-176.94" x2="1955.63" y2="-237.14" gradientTransform="matrix(-1 0 0 1 1976.672 239.007)"><stop offset="0" stop-color="#E1E3E1"></stop><stop offset=".1" stop-color="#C1C5C4"></stop><stop offset=".3" stop-color="#9BA1A2"></stop><stop offset=".5" stop-color="#7D8487"></stop><stop offset=".7" stop-color="#687074" stop-opacity="0"></stop><stop offset=".8" stop-color="#5b6469" stop-opacity="0"></stop><stop offset="1" stop-color="#576065" stop-opacity="0"></stop></linearGradient><path opacity=".4" fill="url(#st-c)" d="M32 63.3c17.3 0 31.3-14 31.3-31.3S49.3.7 32 .7.7 14.7.7 32s14 31.3 31.3 31.3zM32 0c17.6 0 32 14.4 32 32S49.6 64 32 64 0 49.6 0 32 14.4 0 32 0z"></path><path fill="#FFF" d="M2.2 32.1C2.2 15.7 15.5 2.2 32 2.2s29.8 13.4 29.8 29.9c0 16.4-13.3 29.7-29.8 29.7S2.2 48.5 2.2 32.1zm9.3-20.6c-5.3 5.3-8.6 12.6-8.6 20.6 0 8 3.3 15.3 8.5 20.5 5.3 5.2 12.6 8.5 20.6 8.5 8 0 15.3-3.2 20.5-8.5 5.3-5.2 8.5-12.5 8.5-20.5s-3.3-15.3-8.5-20.6C47.3 6.2 40 2.9 32 2.9s-15.3 3.3-20.5 8.6z"></path><linearGradient id="st-d" gradientUnits="userSpaceOnUse" x1="124.2" y1="-139.1" x2="151.8" y2="-186.9" gradientTransform="matrix(1 0 0 -1 -106 -131)"><stop offset="0" stop-color="#E1E3E1"></stop><stop offset=".1" stop-color="#C1C5C4"></stop><stop offset=".3" stop-color="#9BA1A2"></stop><stop offset=".5" stop-color="#7D8487"></stop><stop offset=".7" stop-color="#687074" stop-opacity="0"></stop><stop offset=".8" stop-color="#5b6469" stop-opacity="0"></stop><stop offset="1" stop-color="#576065" stop-opacity="0"></stop></linearGradient><path opacity=".4" fill="url(#st-d)" d="M32 59.6c-7.4 0-14.3-2.9-19.5-8.1S4.4 39.4 4.4 32s2.9-14.3 8.1-19.5S24.6 4.4 32 4.4s14.3 2.9 19.5 8.1 8.1 12.1 8.1 19.5-2.9 14.3-8.1 19.5-12.1 8.1-19.5 8.1zm0-.8c7.1 0 13.9-2.8 18.9-7.8 5.1-5.1 7.8-11.8 7.8-18.9s-2.8-13.9-7.8-18.9C45.8 8.1 39.1 5.4 32 5.4c-7.1 0-13.9 2.8-18.9 7.8C8 18.1 5.2 24.9 5.2 32c0 7.1 2.8 13.9 7.8 18.9 5.1 5.1 11.9 7.9 19 7.9z"></path><path fill="#FFF" d="M56.3 45c-.5-.4-19.8-15.7-19.8-15.7L32 3.6c-.3.1-.7.4-.9.8l-3.2 25L8 44.7s-.4.5-.6.8c-.1.2-.1.5-.1.8l24.6-10.1 24.6 10.1c.2-.5 0-1-.2-1.3z"></path><path fill="#565F64" d="M32.2 32.8l-.2 4.6 22.6 9.1c.8.4 1.4.2 2-.2L32.5 32.7c-.1-.1-.3 0-.3.1z"></path><linearGradient id="st-e" gradientUnits="userSpaceOnUse" x1="150.49" y1="-170.39" x2="148.79" y2="-173.19" gradientTransform="matrix(1 0 0 -1 -106 -131)"><stop offset="0" stop-color="#27343C"></stop><stop offset="1" stop-color="#00111e" stop-opacity="0"></stop></linearGradient><path fill="url(#st-e)" d="M32.2 32.8s1.3 2.3 2.8 3.9c2.1 2.3 4.9 3.9 4.9 3.9l14.7 5.9c.8.4 1.4.2 2-.2L32.5 32.7c-.1-.1-.3 0-.3.1z"></path><path fill="#A4AAAE" fill-opacity=".6" d="M56.5 45.4c0-.1-.1-.2-.2-.4L35.7 29.9l-2.8 1.8s.2.1.3 0c.3-.1.9-.2 1.5 0 .5.2 21.8 13.8 21.8 13.8v-.1z"></path><path fill="#333E46" d="M55.8 44.5L36.6 29.3l-.9.6 20.6 15.2c-.1-.2-.3-.4-.5-.6z"></path><path fill="#565F64" d="M32.5 31.3l-.1.1s0 .2.2.1c.1-.1 3-1.6 4-2.2l-3.5-24c-.1-.9-.5-1.3-1.2-1.6l.4 27.8.2-.2z"></path><path fill="#A4AAAE" fill-opacity=".6" d="M30.8 5.3v1.3l-2.2 22.1c0 .3.1.6.4.8l1.3 1 .9-24.4.1-1.9c-.3.2-.4.6-.5 1.1zM29.6 30.9l-1.2-1L8.1 44.6s-.6.4-.7.8l.7-.4 21.3-13.4c.4-.2.5-.4.2-.7z"></path><path fill="#565F64" d="M31.7 32.8c0-.1-.1-.2-.2-.1L7.3 46.4c.6.4 1.2.5 2 .2l22.6-9.1-.2-4.7z"></path><linearGradient id="st-f" gradientUnits="userSpaceOnUse" x1="145.58" y1="-160.11" x2="142.78" y2="-155.61" gradientTransform="matrix(1 0 0 -1 -106 -131)"><stop offset=".1" stop-color="#02131F"></stop><stop offset=".9" stop-color="#02131f" stop-opacity="0"></stop></linearGradient><path fill="url(#st-f)" d="M32.4 31.4l.1-.1-.1.1s0 .1.1.1h.1c.1-.1 3-1.6 4-2.2l-.4-2.9-3.1-21.1c0-.4-.1-.7-.3-.9 0 0 1.5 20.2 1.5 22.4 0 2.9-1.9 4.6-1.9 4.6z"></path><linearGradient id="st-g" gradientUnits="userSpaceOnUse" x1="137.98" y1="-167.34" x2="133.78" y2="-168.54" gradientTransform="matrix(1 0 0 -1 -106 -131)"><stop offset=".2" stop-color="#02131F"></stop><stop offset=".9" stop-color="#02131f" stop-opacity="0"></stop></linearGradient><path fill="url(#st-g)" fill-opacity=".8" d="M31.7 32.8c0-.1-.1-.2-.2-.1L7.3 46.4c.6.4 1.2.5 2 .2l22.6-9.1-.2-4.7z"></path><linearGradient id="st-h" gradientUnits="userSpaceOnUse" x1="126.79" y1="-172.9" x2="126.19" y2="-171.4" gradientTransform="matrix(1 0 0 -1 -106 -131)"><stop offset="0" stop-color="#02131F"></stop><stop offset=".1" stop-color="#02131F"></stop><stop offset="1" stop-color="#02131f" stop-opacity="0"></stop></linearGradient><path opacity=".8" fill="url(#st-h)" d="M9.3 46.5l22.6-9.1-.2-4.4c-.4 1.2-1.1 2.5-3 3.5-1.4.8-14.8 7.4-19.6 9.7-.3.2-.7.3-.9.4.4.2.7.1 1.1-.1z"></path><linearGradient id="st-i" gradientUnits="userSpaceOnUse" x1="141.6" y1="-148.21" x2="138.2" y2="-148.61" gradientTransform="matrix(1 0 0 -1 -106 -131)"><stop offset=".3" stop-color="#02131F"></stop><stop offset=".3" stop-color="#02131F"></stop><stop offset=".8" stop-color="#02131f" stop-opacity="0"></stop></linearGradient><path fill="url(#st-i)" d="M32.5 31.3l-.1.1s0 .2.2.1c.1-.1 3-1.6 4-2.2l-3.5-24c-.1-.9-.5-1.3-1.2-1.6l.4 27.8.2-.2z"></path><linearGradient id="st-j" gradientUnits="userSpaceOnUse" x1="141.71" y1="-148.16" x2="139.41" y2="-148.46" gradientTransform="matrix(1 0 0 -1 -106 -131)"><stop offset=".4" stop-color="#27343C"></stop><stop offset="1" stop-color="#3b474e" stop-opacity="0"></stop></linearGradient><path fill="url(#st-j)" d="M32.5 31.3l-.1.1s0 .2.2.1c.1-.1 3-1.6 4-2.2l-3.5-24c-.1-.9-.5-1.3-1.2-1.6l.4 27.8.2-.2z"></path><linearGradient id="st-k" gradientUnits="userSpaceOnUse" x1="105.64" y1="-163.83" x2="133.54" y2="-179.93" gradientTransform="matrix(1 0 0 -1 -106 -131)"><stop offset="0" stop-color="#24303a" stop-opacity="0"></stop><stop offset="0" stop-color="#25323b" stop-opacity="0"></stop><stop offset=".1" stop-color="#27343C"></stop></linearGradient><path fill="url(#st-k)" d="M5.1 44.4C4.4 42.8.4 35 4.8 20H3.1c-.9 3-1.6 4.8-2 7.5 0 0-.2 1-.3 2.1C.7 30.7.7 31.3.7 32c0 6 1.5 9.5 1.5 9.5 1.6 5 4.4 9.5 8.2 12.9 3.3 2.9 8.4 5.1 12.6 5.9-.7-.1-12.7-5.2-17.9-15.9z"></path><linearGradient id="st-l" gradientUnits="userSpaceOnUse" x1="137.95" y1="-168.4" x2="137.95" y2="-163.6" gradientTransform="matrix(1 0 0 -1 -106 -131)"><stop offset=".3" stop-color="#A5ABAF"></stop><stop offset="1" stop-color="#a5abaf" stop-opacity="0"></stop></linearGradient><path fill="url(#st-l)" d="M32.4 32.6h-.9c.1 0 .2 0 .2.1l.2 4.6h.1l.2-4.6c0-.1.1-.2.2-.1z"></path><linearGradient id="st-m" gradientUnits="userSpaceOnUse" x1="153.65" y1="-133.3" x2="153.65" y2="-194.3" gradientTransform="matrix(1 0 0 -1 -106 -131)"><stop offset="0" stop-color="#DEE0DD"></stop><stop offset="0" stop-color="#C5C9C7"></stop><stop offset="0" stop-color="#9EA4A5"></stop><stop offset="0" stop-color="#82898C"></stop><stop offset="0" stop-color="#71797D"></stop><stop offset="0" stop-color="#6B7378"></stop><stop offset=".2" stop-color="#333F47"></stop><stop offset=".5" stop-color="#27343C"></stop><stop offset=".8" stop-color="#333F47"></stop><stop offset="1" stop-color="#434D54"></stop></linearGradient><path fill="url(#st-m)" d="M42 2.3c10.5 4 20.4 15 20.4 28.9C62.4 48 49 61.7 32 61.7v1.6c17 0 31.3-14 31.3-31.3 0-13.8-8.8-25.4-21.3-29.7z"></path><linearGradient id="st-n" gradientUnits="userSpaceOnUse" x1="138" y1="-131.7" x2="138.3" y2="-131.7" gradientTransform="matrix(1 0 0 -1 -106 -131)"><stop offset="0" stop-color="#DEE0DD"></stop><stop offset="0" stop-color="#C5C9C7"></stop><stop offset="0" stop-color="#9EA4A5"></stop><stop offset="0" stop-color="#82898C"></stop><stop offset="0" stop-color="#71797D"></stop><stop offset="0" stop-color="#6B7378"></stop><stop offset=".2" stop-color="#333F47"></stop><stop offset=".5" stop-color="#27343C"></stop><stop offset=".8" stop-color="#333F47"></stop><stop offset="1" stop-color="#434D54"></stop></linearGradient><path fill="url(#st-n)" d="M32.3.7H32h.3z"></path><linearGradient id="st-o" gradientUnits="userSpaceOnUse" x1="163.29" y1="-139.09" x2="149.79" y2="-158.89" gradientTransform="matrix(1 0 0 -1 -106 -131)"><stop offset=".7" stop-color="#27343C"></stop><stop offset=".7" stop-color="#2B373F"></stop><stop offset=".7" stop-color="#36424A"></stop><stop offset=".7" stop-color="#49545B"></stop><stop offset=".8" stop-color="#646d73" stop-opacity="0"></stop><stop offset=".8" stop-color="#868d92" stop-opacity="0"></stop><stop offset=".8" stop-color="#b0b5b8" stop-opacity="0"></stop><stop offset=".8" stop-color="#e1e3e4" stop-opacity="0"></stop><stop offset=".8" stop-color="#fff" stop-opacity="0"></stop></linearGradient><path fill="url(#st-o)" d="M58.8 20.2C51.8 4.1 36 3.2 35.1 3.1H35c12.1 2.2 19.8 10.1 22.5 18.4v.1c1.2 3.2 1.8 6.6 1.9 10.3.1 3.5-.7 7.4-2.2 11-.1.5-.2 1.1-.3 1.1h1.6c4.8-9 2.7-18.1.3-23.8z"></path><path fill="#FBFBFB" d="M2.2 32.1C2.2 15.7 15.5 2.2 32 2.2s29.8 13.4 29.8 29.9c0 16.4-13.3 29.7-29.8 29.7S2.2 48.5 2.2 32.1zm9.3-20.6c-5.3 5.3-8.6 12.6-8.6 20.6 0 8 3.3 15.3 8.5 20.5 5.3 5.2 12.6 8.5 20.6 8.5 8 0 15.3-3.2 20.5-8.5 5.3-5.2 8.5-12.5 8.5-20.5s-3.3-15.3-8.5-20.6C47.3 6.2 40 2.9 32 2.9s-15.3 3.3-20.5 8.6z"></path><path fill="#333F47" d="M7.9 44.8l20.4-14.7c1.1.6 2.9 1.4 3.1 1.4.2.1.2-.1.2-.1l-2.5-2.1c-.3-.2-.4-.5-.4-.8l2.4-24.1c-.1.1-.1.3-.2.4-.1.2-.1.3-.1.5l-3.5 24.1L8.1 44.5c-.1.1-.2.2-.2.3z"></path></svg>
    <path d="M638 212H962Q988 212 992 238L1006 322Q1010 348 982 348H618Q590 348 594 322L608 238Q612 212 638 212Z" fill="none" stroke="url(#chrome)" stroke-width="6"/>
    <path d="M638 209.5H962" stroke="#fff" stroke-opacity=".8" stroke-width="1"/>
    <use href="#side-intake"/><use href="#side-intake" transform="translate(1600 0) scale(-1 1)"/>
    <path d="M560 386H1040Q1058 386 1056 402L1050 432Q1046 446 1030 446H570Q554 446 550 432L544 402Q542 386 560 386Z" fill="url(#mesh)"/>
    <g clip-path="url(#intake-clip)"><path d="M542 392H1058" stroke="#000" stroke-opacity=".75" stroke-width="10"/></g>
    <path d="M560 386H1040Q1058 386 1056 402L1050 432Q1046 446 1030 446H570Q554 446 550 432L544 402Q542 386 560 386Z" fill="none" stroke="#9fb3d4" stroke-opacity=".12" stroke-width="1.2"/>
    <path d="M536 386C640 378 960 378 1064 386" fill="none" stroke="url(#chrome)" stroke-width="6" stroke-linecap="round"/>
    <path d="M536 386C640 378 960 378 1064 386" fill="none" stroke="#fff" stroke-opacity=".85" stroke-width="1.1" transform="translate(0 -2.4)"/>
    <path d="M246 452C520 460 1080 460 1354 452L1350 465H250Z" fill="#020307"/>
    <path d="M246 452C520 460 1080 460 1354 452" fill="none" stroke="#c0cfe8" stroke-opacity=".16" stroke-width="1.2"/>
    <path d="M640 492H760M840 492H960" stroke="#d8e4f8" stroke-opacity=".05" stroke-width="3" stroke-linecap="round"/>
  </g></g>
</svg>
